<svg width="84" height="84" viewBox="0 0 84 84" fill="none" xmlns="http://www.w3.org/2000/svg">
<rect width="84" height="84" rx="4" fill="#0B4FC4"/>
<g clip-path="url(#clip0_53_833)">
<path d="M26.9357 59.9943C26.3161 60.1205 25.6621 59.9369 25.2031 59.4781L24.113 58.3883C23.8147 58.0901 23.6311 57.7 23.5737 57.31L21.6001 59.2831L24.6294 62.3L26.9357 59.9943ZM29.2765 51.5974C29.9535 52.9051 31.0665 53.949 32.4205 54.5111L56.3333 30.6051C56.689 30.2495 57.3086 30.5019 57.3086 31.0066V42.1337H61.6001V22.3H41.7722V26.5902H52.8566C53.4417 26.5673 53.6598 27.2211 53.3155 27.5653L29.2765 51.5974ZM41.9214 46.6304C42.6902 49.2114 42.0017 52.0333 40.0625 53.9719C36.3677 57.6656 30.1371 56.4497 28.0602 51.7006C26.1784 47.3989 28.7716 42.3745 33.4647 41.4913C34.7843 41.2389 36.1612 41.3536 37.4349 41.8239L39.9248 39.3347C39.2364 38.9676 38.5249 38.6694 37.7791 38.4629C36.9415 38.222 36.3907 37.4878 36.3907 36.616C36.3907 36.2719 36.4251 35.9966 36.1612 35.7213C36.0235 35.5836 35.8284 35.4918 35.6219 35.4918H34.0728C33.6483 35.4918 33.3041 35.836 33.3041 36.2604C33.3041 36.834 33.3041 37.2584 32.9254 37.7746C32.6844 38.0958 32.3287 38.3367 31.9156 38.4629C31.1239 38.6923 30.3666 39.002 29.6437 39.4035C28.8864 39.8279 27.9684 39.7018 27.3603 39.0823C27.1193 38.8414 26.9472 38.612 26.5685 38.612C26.3735 38.612 26.1784 38.6923 26.0292 38.8414L24.9392 39.9312C24.6408 40.2294 24.6408 40.7227 24.9392 41.021C25.3522 41.4339 25.6506 41.7207 25.7309 42.3631C25.7883 42.7646 25.7194 43.1775 25.5014 43.5561C25.0998 44.2788 24.79 45.0359 24.5605 45.8274C24.3195 46.6648 23.5852 47.2154 22.7246 47.2154H22.3689C21.9443 47.2154 21.6001 47.5595 21.6001 47.984V49.5326C21.6001 49.957 21.9443 50.3011 22.3689 50.3011H22.7246C23.5852 50.3011 24.331 50.8632 24.5605 51.7006C24.79 52.4921 25.0998 53.2492 25.5014 53.9719C25.926 54.7175 25.7998 55.6467 25.1916 56.2547C24.9506 56.4956 24.7212 56.6676 24.7212 57.0462C24.7212 57.2412 24.8015 57.4362 24.9506 57.5853L26.0407 58.6751C26.3391 58.9733 26.8325 58.9733 27.1308 58.6751C27.5439 58.2621 27.8307 57.9639 28.4733 57.8836C28.8864 57.8262 29.2995 57.9065 29.6666 58.113C30.3895 58.5145 31.1469 58.8242 31.9386 59.0536C32.7762 59.2831 33.3385 60.0287 33.3385 60.889C33.3385 61.2332 33.2926 61.5085 33.568 61.7838C33.7057 61.9214 33.9007 62.0132 34.1073 62.0132H35.6563C36.0809 62.0132 36.4251 61.6691 36.4251 61.2446C36.4251 60.6711 36.4251 60.2466 36.8038 59.7304C37.0447 59.4092 37.4004 59.1684 37.8135 59.0422C38.6053 58.8127 39.3626 58.503 40.0855 58.1015C40.8428 57.6771 41.7607 57.8033 42.3689 58.4113C42.6099 58.6521 42.782 58.8816 43.1606 58.8816C43.3557 58.8816 43.5508 58.8013 43.6999 58.6636L44.79 57.5739C44.9392 57.4247 45.0195 57.2297 45.0195 57.0347C45.0195 56.335 44.1589 56.3006 43.9983 55.1534C43.9409 54.752 44.0097 54.339 44.2278 53.9604C44.6294 53.2378 44.9392 52.4807 45.1687 51.6891C45.4096 50.8518 46.144 50.2897 47.0046 50.2897C47.3488 50.2897 47.6357 50.3355 47.8996 50.0602C48.0373 49.9226 48.1291 49.7276 48.1291 49.5211V47.9725C48.1291 47.5481 47.7848 47.2039 47.3603 47.2039C46.7866 47.2039 46.362 47.2039 45.8456 46.8254C45.5244 46.5845 45.2834 46.2289 45.1572 45.8159C44.9851 45.2194 44.7671 44.6458 44.5031 44.0838L41.9214 46.6304Z" fill="white"/>
</g>
<defs>
<clipPath id="clip0_53_833">
<rect width="40" height="40" fill="white" transform="translate(22 22)"/>
</clipPath>
</defs>
</svg>
