<svg width="84" height="84" viewBox="0 0 84 84" fill="none" xmlns="http://www.w3.org/2000/svg">
<rect width="84" height="84" rx="4" fill="#0B4FC4"/>
<path d="M61.9786 32.854C61.9381 32.9471 61.846 33.0075 61.7442 33.0075H59.074L59.0776 56.9151C59.0776 56.9832 59.0505 57.0482 59.0024 57.0963C58.9548 57.1439 58.8893 57.171 58.8217 57.171H52.5368C52.395 57.171 52.2809 57.0564 52.2809 56.9151V33.0075H49.6108C49.5089 33.0075 49.4163 32.9471 49.3759 32.854C49.3355 32.7604 49.3539 32.6519 49.4235 32.5772L55.4904 26.0809C55.5391 26.0292 55.6066 26 55.6777 26C55.7484 26 55.8159 26.0292 55.8645 26.0809L61.931 32.5772C62.0006 32.6519 62.0195 32.7604 61.9786 32.854Z" fill="white"/>
<path d="M34.5765 49.5663C34.6461 49.641 34.6645 49.7495 34.624 49.8431C34.5836 49.9363 34.491 49.9966 34.3892 49.9966H31.7195L31.7231 56.9151C31.7231 56.9827 31.696 57.0482 31.6479 57.0958C31.5998 57.1439 31.5348 57.171 31.4672 57.171H25.1818C25.0405 57.171 24.9259 57.0564 24.9259 56.9151V49.9966H22.2557C22.1539 49.9966 22.0618 49.9363 22.0214 49.8431C21.9804 49.7495 21.9994 49.641 22.069 49.5663L28.1359 43.07C28.184 43.0183 28.2521 42.9891 28.3227 42.9891C28.3938 42.9891 28.4614 43.0183 28.51 43.07L34.5765 49.5663Z" fill="white"/>
<path d="M48.2537 41.0717C48.3233 41.1464 48.3417 41.2549 48.3013 41.3486C48.2609 41.4417 48.1688 41.5021 48.0664 41.5021H45.3968L45.4004 56.9151C45.4004 56.9832 45.3732 57.0482 45.3251 57.0963C45.2776 57.1439 45.2121 57.171 45.1445 57.171H38.859C38.7178 57.171 38.6032 57.0564 38.6032 56.9151V41.5021H35.9335C35.8312 41.5021 35.7391 41.4417 35.6986 41.3486C35.6582 41.2549 35.6766 41.1464 35.7462 41.0717L41.8132 34.5754C41.8613 34.5237 41.9294 34.4946 42 34.4946C42.0711 34.4946 42.1387 34.5237 42.1873 34.5754L48.2537 41.0717Z" fill="white"/>
</svg>
