<svg width="84" height="84" viewBox="0 0 84 84" fill="none" xmlns="http://www.w3.org/2000/svg">
<rect width="84" height="84" rx="4" fill="#0B4FC4"/>
<g clip-path="url(#clip0_53_825)">
<path d="M42.3383 40.4045L49.8068 35.0699C50.5403 34.5364 50.5403 33.4028 49.8068 32.936L42.3383 27.6014C42.1383 27.468 41.8715 27.3347 41.5381 27.3347H39.6043C37.4038 28.735 36.0034 31.2023 36.0034 34.003C36.0034 36.8036 37.4038 39.2042 39.5376 40.6713H41.5381C41.8715 40.6713 42.1383 40.6046 42.3383 40.4045ZM46.6727 32.6693C47.4062 32.6693 48.0064 33.2694 48.0064 34.003C48.0064 34.7365 47.4062 35.3366 46.6727 35.3366C45.9392 35.3366 45.339 34.7365 45.339 34.003C45.339 33.2694 45.9392 32.6693 46.6727 32.6693Z" fill="white"/>
<path d="M30.6688 34.003C30.6688 31.5357 31.3356 29.2685 32.4692 27.3347H23.3337C22.6001 27.3347 22 27.9348 22 28.6683V39.3376C22 40.0711 22.6001 40.6713 23.3337 40.6713H32.4692C31.3356 38.7374 30.6688 36.4702 30.6688 34.003Z" fill="white"/>
<path d="M61.343 58.6757L55.6082 48.8733C55.2748 48.2731 54.5413 48.0064 53.8745 48.4065L51.1405 43.672C54.0745 41.4714 56.0083 38.0039 56.0083 34.0029C56.0083 27.4013 50.607 22 44.0054 22C37.4038 22 32.0024 27.4013 32.0024 34.0029C32.0024 40.6046 37.4038 46.0059 44.0054 46.0059C45.7391 46.0059 47.3395 45.6058 48.8066 45.0056L51.5406 49.7401L51.4739 49.8068C50.8737 50.1402 50.607 50.9404 51.0071 51.6073L56.6752 61.343C57.0086 61.9431 57.8088 62.2099 58.4756 61.8098L60.8095 60.4761C61.4763 60.1427 61.6764 59.3425 61.343 58.6757ZM34.6698 34.0029C34.6698 28.8683 38.8708 24.6673 44.0054 24.6673C49.14 24.6673 53.341 28.8683 53.341 34.0029C53.341 39.1375 49.14 43.3386 44.0054 43.3386C38.8708 43.3386 34.6698 39.1375 34.6698 34.0029Z" fill="white"/>
</g>
<defs>
<clipPath id="clip0_53_825">
<rect width="40" height="40" fill="white" transform="translate(22 22)"/>
</clipPath>
</defs>
</svg>
