<svg width="84" height="84" viewBox="0 0 84 84" fill="none" xmlns="http://www.w3.org/2000/svg">
<rect width="84" height="84" rx="4" fill="#0B4FC4"/>
<path d="M30.6125 43.3572C31.3623 43.3572 31.9696 42.7499 31.9696 42C31.9696 41.2502 31.3623 40.6429 30.6125 40.6429H30.5989C29.8491 40.6429 29.2485 41.2502 29.2485 42C29.2485 42.7499 29.8627 43.3572 30.6125 43.3572Z" fill="white"/>
<path d="M35.8395 43.3572C36.5894 43.3572 37.1967 42.7499 37.1967 42C37.1967 41.2502 36.5894 40.6429 35.8395 40.6429H35.826C35.0761 40.6429 34.4756 41.2502 34.4756 42C34.4756 42.7499 35.0897 43.3572 35.8395 43.3572Z" fill="white"/>
<path d="M30.6125 55.1202C31.3623 55.1202 31.9696 54.5129 31.9696 53.7631C31.9696 53.0132 31.3623 52.4059 30.6125 52.4059H30.5989C29.8491 52.4059 29.2485 53.0132 29.2485 53.7631C29.2485 54.5129 29.8627 55.1202 30.6125 55.1202Z" fill="white"/>
<path d="M35.8395 55.1202C36.5894 55.1202 37.1967 54.5129 37.1967 53.7631C37.1967 53.0132 36.5894 52.4059 35.8395 52.4059H35.826C35.0761 52.4059 34.4756 53.0132 34.4756 53.7631C34.4756 54.5129 35.0897 55.1202 35.8395 55.1202Z" fill="white"/>
<path d="M56.6222 23H28.0714C25.827 23 24 24.827 24 27.0714V33.4059C24 34.4526 24.4071 35.3975 25.0586 36.1202C24.4071 36.8429 24 37.7878 24 38.8345V45.1672C24 46.214 24.4071 47.1588 25.0586 47.8815C24.4071 48.6042 24 49.5491 24 50.5958V56.9286C24 59.173 25.827 61 28.0714 61H56.6222C58.8666 61 60.6937 59.173 60.6937 56.9286V50.5941C60.6937 49.5474 60.2865 48.6025 59.6351 47.8798C60.2865 47.1571 60.6937 46.2122 60.6937 45.1655V38.8328C60.6937 37.786 60.2865 36.8412 59.6351 36.1185C60.2865 35.3958 60.6937 34.4509 60.6937 33.4042V27.0714C60.6937 24.827 58.8666 23 56.6222 23ZM57.9794 50.5941V56.9286C57.9794 57.6767 57.3704 58.2857 56.6222 58.2857H28.0714C27.3233 58.2857 26.7143 57.6767 26.7143 56.9286V50.5941C26.7143 49.8459 27.3233 49.2369 28.0714 49.2369H56.6222C57.3704 49.2369 57.9794 49.8459 57.9794 50.5941ZM26.7143 33.4059V27.0714C26.7143 26.3233 27.3233 25.7143 28.0714 25.7143H56.6222C57.3704 25.7143 57.9794 26.3233 57.9794 27.0714V33.4059C57.9794 34.1541 57.3704 34.7631 56.6222 34.7631H28.0714C27.3233 34.7631 26.7143 34.1541 26.7143 33.4059ZM57.9794 38.8345V45.1672C57.9794 45.9154 57.3704 46.5244 56.6222 46.5244L28.0714 46.5227C27.3233 46.5227 26.7143 45.9137 26.7143 45.1655V38.8328C26.7143 38.0847 27.3233 37.4757 28.0714 37.4757H56.6222C57.3704 37.4773 57.9794 38.0847 57.9794 38.8345Z" fill="white"/>
<path d="M30.6125 28.8798H30.5989C29.8491 28.8798 29.2485 29.4871 29.2485 30.237C29.2485 30.9868 29.8627 31.5941 30.6125 31.5941C31.3623 31.5941 31.9696 30.9868 31.9696 30.237C31.9696 29.4871 31.3623 28.8798 30.6125 28.8798Z" fill="white"/>
<path d="M35.8395 28.8798H35.826C35.0761 28.8798 34.4756 29.4871 34.4756 30.237C34.4756 30.9868 35.0897 31.5941 35.8395 31.5941C36.5893 31.5941 37.1966 30.9868 37.1966 30.237C37.1966 29.4871 36.5894 28.8798 35.8395 28.8798Z" fill="white"/>
<path d="M44.8608 27.5226C44.111 27.5226 43.5037 28.1299 43.5037 28.8798V31.5941C43.5037 32.3439 44.111 32.9512 44.8608 32.9512C45.6106 32.9512 46.2179 32.3439 46.2179 31.5941V28.8798C46.2179 28.1299 45.6089 27.5226 44.8608 27.5226Z" fill="white"/>
<path d="M49.4839 27.5226C48.734 27.5226 48.1267 28.1299 48.1267 28.8798V31.5941C48.1267 32.3439 48.734 32.9512 49.4839 32.9512C50.2337 32.9512 50.841 32.3439 50.841 31.5941V28.8798C50.841 28.1299 50.2337 27.5226 49.4839 27.5226Z" fill="white"/>
<path d="M54.1081 27.5226C53.3583 27.5226 52.751 28.1299 52.751 28.8798V31.5941C52.751 32.3439 53.3583 32.9512 54.1081 32.9512C54.858 32.9512 55.4653 32.3439 55.4653 31.5941V28.8798C55.4653 28.1299 54.858 27.5226 54.1081 27.5226Z" fill="white"/>
<path d="M44.8608 44.7143C45.6106 44.7143 46.2179 44.107 46.2179 43.3571V40.6428C46.2179 39.893 45.6106 39.2857 44.8608 39.2857C44.111 39.2857 43.5037 39.893 43.5037 40.6428V43.3571C43.5037 44.107 44.111 44.7143 44.8608 44.7143Z" fill="white"/>
<path d="M49.4839 44.7143C50.2337 44.7143 50.841 44.107 50.841 43.3571V40.6428C50.841 39.893 50.2337 39.2857 49.4839 39.2857C48.734 39.2857 48.1267 39.893 48.1267 40.6428V43.3571C48.1267 44.107 48.7357 44.7143 49.4839 44.7143Z" fill="white"/>
<path d="M54.1081 44.7143C54.858 44.7143 55.4653 44.107 55.4653 43.3571V40.6428C55.4653 39.893 54.858 39.2857 54.1081 39.2857C53.3583 39.2857 52.751 39.893 52.751 40.6428V43.3571C52.751 44.107 53.3583 44.7143 54.1081 44.7143Z" fill="white"/>
<path d="M44.8608 56.4773C45.6106 56.4773 46.2179 55.87 46.2179 55.1202V52.4059C46.2179 51.6561 45.6106 51.0488 44.8608 51.0488C44.111 51.0488 43.5037 51.6561 43.5037 52.4059V55.1202C43.5037 55.87 44.111 56.4773 44.8608 56.4773Z" fill="white"/>
<path d="M49.4839 56.4773C50.2337 56.4773 50.841 55.87 50.841 55.1202V52.4059C50.841 51.6561 50.2337 51.0488 49.4839 51.0488C48.734 51.0488 48.1267 51.6561 48.1267 52.4059V55.1202C48.1267 55.87 48.7357 56.4773 49.4839 56.4773Z" fill="white"/>
<path d="M54.1081 56.4773C54.858 56.4773 55.4653 55.87 55.4653 55.1202V52.4059C55.4653 51.6561 54.858 51.0488 54.1081 51.0488C53.3583 51.0488 52.751 51.6561 52.751 52.4059V55.1202C52.751 55.87 53.3583 56.4773 54.1081 56.4773Z" fill="white"/>
</svg>
