<svg width="20" height="20" viewBox="0 0 20 20" fill="none" xmlns="http://www.w3.org/2000/svg">
<path d="M0 2.22007C0 1.57655 0.225232 1.04566 0.675676 0.627402C1.12612 0.20912 1.71172 -1.14441e-05 2.43243 -1.14441e-05C3.14029 -1.14441e-05 3.71299 0.205896 4.15058 0.617749C4.60102 1.04246 4.82625 1.59586 4.82625 2.27798C4.82625 2.89574 4.60747 3.41053 4.16988 3.82238C3.71944 4.24709 3.12741 4.45945 2.39382 4.45945H2.37452C1.66666 4.45945 1.09396 4.24709 0.656371 3.82238C0.218784 3.39767 0 2.86356 0 2.22007ZM0.250965 19.112V6.2162H4.53668V19.112H0.250965ZM6.9112 19.112H11.1969V11.9112C11.1969 11.4607 11.2484 11.1132 11.3514 10.8687C11.5315 10.4311 11.805 10.0611 12.1718 9.75868C12.5386 9.45622 12.9987 9.30501 13.5521 9.30501C14.9936 9.30501 15.7143 10.2767 15.7143 12.2201V19.112H20V11.7181C20 9.81337 19.5496 8.36871 18.6486 7.38416C17.7477 6.3996 16.5573 5.90732 15.0772 5.90732C13.417 5.90732 12.1236 6.62161 11.1969 8.05018V8.08879H11.1776L11.1969 8.05018V6.2162H6.9112C6.93693 6.62804 6.94981 7.9086 6.94981 10.0579C6.94981 12.2072 6.93693 15.2252 6.9112 19.112Z" fill="#010815"/>
</svg>
