<svg width="18" height="18" viewBox="0 0 18 18" fill="none" xmlns="http://www.w3.org/2000/svg">
<path d="M17.4001 0.613334C17.2767 0.489729 17.1302 0.391666 16.9689 0.324757C16.8076 0.257849 16.6347 0.223408 16.4601 0.223408C16.2854 0.223408 16.1125 0.257849 15.9512 0.324757C15.7899 0.391666 15.6434 0.489729 15.5201 0.613334L9.00005 7.12L2.48005 0.6C2.35661 0.476558 2.21006 0.378638 2.04878 0.311831C1.88749 0.245025 1.71463 0.21064 1.54005 0.21064C1.36548 0.21064 1.19261 0.245025 1.03133 0.311831C0.870044 0.378638 0.723496 0.476558 0.600054 0.6C0.476611 0.723443 0.378691 0.869991 0.311885 1.03128C0.245078 1.19256 0.210693 1.36543 0.210693 1.54C0.210693 1.71458 0.245078 1.88744 0.311885 2.04873C0.378691 2.21001 0.476611 2.35656 0.600054 2.48L7.12005 9L0.600054 15.52C0.476611 15.6434 0.378691 15.79 0.311885 15.9513C0.245078 16.1126 0.210693 16.2854 0.210693 16.46C0.210693 16.6346 0.245078 16.8074 0.311885 16.9687C0.378691 17.13 0.476611 17.2766 0.600054 17.4C0.723496 17.5234 0.870044 17.6214 1.03133 17.6882C1.19261 17.755 1.36548 17.7894 1.54005 17.7894C1.71463 17.7894 1.88749 17.755 2.04878 17.6882C2.21006 17.6214 2.35661 17.5234 2.48005 17.4L9.00005 10.88L15.5201 17.4C15.6435 17.5234 15.79 17.6214 15.9513 17.6882C16.1126 17.755 16.2855 17.7894 16.4601 17.7894C16.6346 17.7894 16.8075 17.755 16.9688 17.6882C17.1301 17.6214 17.2766 17.5234 17.4001 17.4C17.5235 17.2766 17.6214 17.13 17.6882 16.9687C17.755 16.8074 17.7894 16.6346 17.7894 16.46C17.7894 16.2854 17.755 16.1126 17.6882 15.9513C17.6214 15.79 17.5235 15.6434 17.4001 15.52L10.8801 9L17.4001 2.48C17.9067 1.97333 17.9067 1.12 17.4001 0.613334Z" fill="#0B4FC4"/>
</svg>
