<svg width="84" height="84" viewBox="0 0 84 84" fill="none" xmlns="http://www.w3.org/2000/svg">
<rect width="84" height="84" rx="4" fill="#0B4FC4"/>
<g clip-path="url(#clip0_53_827)">
<path fill-rule="evenodd" clip-rule="evenodd" d="M43.9995 23.9988C43.9995 22.8944 43.1033 22 41.999 22C40.8947 22 39.9986 22.8944 39.9986 23.9988V28.0001H30C25.5829 28.0001 22 31.5814 22 35.9989V41.999C22 46.4184 25.5828 49.9998 30 49.9998H53.9981C58.4152 49.9998 61.9981 46.4185 61.9981 41.999V35.9989C61.9981 31.5814 58.4153 28.0001 53.9981 28.0001H43.9995V23.9988ZM57.9971 35.999C57.9971 33.7902 56.2066 31.9996 53.9981 31.9996H30C27.7914 31.9996 26.001 33.7902 26.001 35.999V41.9991C26.001 44.2097 27.7915 46.0004 30 46.0004H53.9981C56.2067 46.0004 57.9971 44.2097 57.9971 41.9991V35.999ZM35.0002 41.9991C36.6557 41.9991 38 40.6565 38 38.999C38 37.3434 36.6557 35.999 35.0002 35.999C33.3429 35.999 32.0005 37.3434 32.0005 38.999C32.0005 40.6565 33.3429 41.9991 35.0002 41.9991ZM48.9978 41.9991C50.6552 41.9991 51.9976 40.6565 51.9976 38.999C51.9976 37.3434 50.6552 35.999 48.9978 35.999C47.3424 35.999 45.9981 37.3434 45.9981 38.999C45.9981 40.6565 47.3424 41.9991 48.9978 41.9991ZM32.0005 59.9993C32.0005 58.8949 32.8948 58.0005 33.9991 58.0005H49.9991C51.1034 58.0005 51.9977 58.8949 51.9977 59.9993C51.9977 61.1037 51.1034 62 49.9991 62H33.9991C32.8948 62 32.0005 61.1037 32.0005 59.9993ZM27.9996 52.0005C26.8953 52.0005 26.001 52.8949 26.001 53.9993C26.001 55.1037 26.8953 56 27.9996 56H55.9986C57.1029 56 57.9972 55.1037 57.9972 53.9993C57.9972 52.8949 57.1029 52.0005 55.9986 52.0005H27.9996Z" fill="white"/>
</g>
<defs>
<clipPath id="clip0_53_827">
<rect width="40" height="40" fill="white" transform="translate(22 22)"/>
</clipPath>
</defs>
</svg>
