<svg width="84" height="84" viewBox="0 0 84 84" fill="none" xmlns="http://www.w3.org/2000/svg">
<rect width="84" height="84" rx="4" fill="#0B4FC4"/>
<g clip-path="url(#clip0_53_831)">
<path d="M48.6665 41.3335C49.001 41.3335 49.313 41.1665 49.4985 40.888L51.165 38.388L49.501 37.2785L48.131 39.333H47.166V38.5C47.166 37.581 46.4185 36.8335 45.4995 36.8335H44.803C44.737 35.8255 43.8965 35.025 42.8715 35.025H41.127C40.1025 35.025 39.262 35.825 39.1955 36.8335H38.5C37.581 36.8335 36.8335 37.581 36.8335 38.5V39.3335H35.8685L34.4985 37.279L32.8345 38.3885L34.501 40.8885C34.6865 41.1665 34.9985 41.334 35.333 41.334H36.833V43.5H35.333C34.9985 43.5 34.6865 43.667 34.501 43.9455L32.8345 46.4455L34.4985 47.555L35.8685 45.5005H36.903C37.301 47.862 39.36 49.667 41.833 49.667H42.1665C44.6395 49.667 46.699 47.862 47.0965 45.5005H48.131L49.501 47.555L51.165 46.4455L49.4985 43.9455C49.313 43.6675 49.001 43.5 48.6665 43.5H47.1665V41.3335H48.6665ZM45.1665 44.6665C45.1665 46.3205 43.8205 47.6665 42.1665 47.6665H41.833C40.179 47.6665 38.833 46.3205 38.833 44.6665V38.8335H40.1915H41V45.3335H43V38.8335H43.8085H45.167V44.6665H45.1665Z" fill="white"/>
<path d="M42 27.6665C38.1715 27.6665 34.572 29.1575 31.865 31.8645C29.1575 34.5715 27.667 38.171 27.667 41.9995C27.667 45.828 29.158 49.4275 31.865 52.1345C34.572 54.8415 38.1715 56.3325 42 56.3325C45.8285 56.3325 49.428 54.8415 52.135 52.1345C54.8425 49.4275 56.333 45.828 56.333 41.9995C56.333 38.171 54.842 34.5715 52.135 31.8645C49.428 29.1575 45.8285 27.6665 42 27.6665ZM43 54.2925V52.9805H41V54.2925C34.995 53.8085 30.1915 49.005 29.7075 43H31.02V41H29.7075C30.1915 34.995 34.995 30.1915 41 29.7075V31.0195H43V29.7075C49.005 30.1915 53.8085 34.995 54.2925 41H52.98V43H54.2925C53.8085 49.005 49.005 53.8085 43 54.2925Z" fill="white"/>
<path d="M62 41H60.4735C60.36 38.856 59.8815 36.774 59.046 34.7985C58.114 32.5955 56.7805 30.617 55.0815 28.9185C53.3825 27.22 51.4045 25.886 49.2015 24.954C47.226 24.1185 45.144 23.64 43 23.5265V22H41V23.5265C38.856 23.64 36.774 24.1185 34.7985 24.954C32.5955 25.886 30.617 27.2195 28.9185 28.9185C27.22 30.6175 25.886 32.5955 24.954 34.7985C24.1185 36.774 23.64 38.856 23.5265 41H22V43H23.5265C23.64 45.144 24.1185 47.226 24.954 49.2015C25.886 51.4045 27.2195 53.383 28.9185 55.0815C30.6175 56.78 32.5955 58.114 34.7985 59.046C36.774 59.8815 38.856 60.36 41 60.4735V62H43V60.4735C45.144 60.36 47.226 59.8815 49.2015 59.046C51.4045 58.114 53.383 56.7805 55.0815 55.0815C56.78 53.3825 58.114 51.4045 59.046 49.2015C59.8815 47.226 60.36 45.144 60.4735 43H62V41ZM42 58.5C32.902 58.5 25.5 51.098 25.5 42C25.5 32.902 32.902 25.5 42 25.5C51.098 25.5 58.5 32.902 58.5 42C58.5 51.098 51.098 58.5 42 58.5Z" fill="white"/>
</g>
<defs>
<clipPath id="clip0_53_831">
<rect width="40" height="40" fill="white" transform="translate(22 22)"/>
</clipPath>
</defs>
</svg>
