<svg width="84" height="84" viewBox="0 0 84 84" fill="none" xmlns="http://www.w3.org/2000/svg">
<rect width="84" height="84" rx="4" fill="#0B4FC4"/>
<path d="M45.4602 43.0652C45.4602 45.0086 43.88 46.5888 41.9366 46.5888C39.9931 46.5888 38.413 45.0086 38.413 43.0652C38.413 41.1217 39.9931 39.5416 41.9366 39.5416C43.88 39.5416 45.4602 41.1217 45.4602 43.0652ZM50.2846 45.6727L49.685 47.1239L50.4878 49.3076L48.1771 51.6182L45.9934 50.8155L44.5422 51.4151L43.5676 53.5265H40.3018L39.3252 51.4151L37.874 50.8155L35.6923 51.6202L33.3816 49.3095L34.1844 47.1258L33.5848 45.6746L31.4714 44.7V41.4322L33.5848 40.4576L34.1844 39.0064L33.3797 36.8227L35.6903 34.514L37.8701 35.3168L39.3213 34.7172L40.2979 32.6038H43.5637L44.5383 34.7172L45.9895 35.3168L48.1732 34.514L50.4839 36.8207L49.6791 39.0044L50.2787 40.4557L52.3902 41.4303V44.698L50.2787 45.6727H50.2846ZM46.5891 43.0652C46.5891 40.4987 44.5011 38.4126 41.9366 38.4126C39.3701 38.4126 37.284 40.5006 37.284 43.0652C37.284 45.6317 39.372 47.7177 41.9366 47.7177C44.5031 47.7177 46.5891 45.6297 46.5891 43.0652ZM26.4418 47.8017C25.9847 46.3036 25.7366 44.7117 25.7366 43.0652C25.7366 34.1173 32.9984 26.8655 41.9363 26.8655V28.9847L45.9014 25.4943L41.9363 22V24.129C31.4884 24.129 23 32.6059 23 43.0653C23 44.7861 23.2305 46.4522 23.6621 48.0362L23.8828 46.9405L26.4418 47.8017ZM60.8728 43.0652C60.8728 34.2758 54.886 26.887 46.7666 24.7519L47.6085 25.4941L45.583 27.2774C52.7748 28.9318 58.136 35.3717 58.136 43.0651C58.136 46.0163 57.347 48.7823 55.966 51.1649L54.13 50.1063L55.173 55.284L60.1792 53.5964L58.3354 52.5339C59.9468 49.7486 60.8707 46.5141 60.8707 43.0645L60.8728 43.0652ZM53.7864 54.1107C50.8293 57.2827 46.6141 59.2654 41.9364 59.2654C35.9462 59.2654 30.7094 56.0074 27.9063 51.1675L29.7423 50.1069L24.7361 48.4194L23.6931 53.5971L25.535 52.5326H25.537C28.8125 58.1908 34.9339 62 41.9362 62C47.1884 62 51.9406 59.8613 55.3703 56.4078L54.3194 56.7613L53.7862 54.1088L53.7864 54.1107Z" fill="white"/>
</svg>
